<?xml version="1.0"?>
<svg xmlns="http://www.w3.org/2000/svg" xmlns:xlink="http://www.w3.org/1999/xlink" xmlns:svgjs="http://svgjs.com/svgjs" version="1.1" width="512" height="512" x="0" y="0" viewBox="0 0 512 512" style="enable-background:new 0 0 512 512" xml:space="preserve"><g><path xmlns="http://www.w3.org/2000/svg" d="m452 512h-392c-33.085938 0-60-26.914062-60-60v-392c0-33.085938 26.914062-60 60-60h392c33.085938 0 60 26.914062 60 60v392c0 33.085938-26.914062 60-60 60zm-392-472c-11.027344 0-20 8.972656-20 20v392c0 11.027344 8.972656 20 20 20h392c11.027344 0 20-8.972656 20-20v-392c0-11.027344-8.972656-20-20-20zm370.898438 111.34375-29.800782-26.6875-184.964844 206.566406-107.351562-102.046875-27.558594 28.988281 137.21875 130.445313zm0 0" fill="#d8ccff" data-original="#000000" style=""/></g></svg>
