<svg width="194" height="32" viewBox="0 0 194 32" fill="none" xmlns="http://www.w3.org/2000/svg">
<path d="M16.668 19.1836L0.203125 27.4062V23.793L13.4453 17.6406L0.203125 11.4883V7.875L16.668 16.1367V19.1836ZM39.0898 19.1836L22.625 27.4062V23.793L35.8672 17.6406L22.625 11.4883V7.875L39.0898 16.1367V19.1836ZM61.5117 19.1836L45.0469 27.4062V23.793L58.2891 17.6406L45.0469 11.4883V7.875L61.5117 16.1367V19.1836Z" fill="#0FB800"/>
<path d="M74.8125 0.609375H81.9414V3.96875H81.9023V19.0859H85.418L90.2227 14.125H89.0117V10.7656H96.6875V14.125H94.1289L87.9766 20.4727L94.6953 27.6406H97.1367V31H92.8594L84.5781 21.957H81.9023V27.6406H83.582V31H74.9297V27.6406H78.25V3.96875H74.8125V0.609375ZM111.98 29.125C111.212 29.8411 110.359 30.4271 109.422 30.8828C108.497 31.3385 107.443 31.5664 106.258 31.5664C105.268 31.5664 104.357 31.4102 103.523 31.0977C102.703 30.7852 101.993 30.362 101.395 29.8281C100.796 29.2812 100.327 28.6497 99.9883 27.9336C99.6628 27.2174 99.5 26.4557 99.5 25.6484C99.5 24.7891 99.6237 24.0273 99.8711 23.3633C100.132 22.6992 100.47 22.1263 100.887 21.6445C101.316 21.1497 101.811 20.7396 102.371 20.4141C102.944 20.0755 103.536 19.8086 104.148 19.6133C104.773 19.4049 105.405 19.2617 106.043 19.1836C106.694 19.0924 107.312 19.0469 107.898 19.0469C108.836 19.0469 109.624 19.0794 110.262 19.1445C110.9 19.1966 111.479 19.2747 112 19.3789L112.02 17.7188C112.02 17.0026 111.915 16.3841 111.707 15.8633C111.499 15.3294 111.206 14.8932 110.828 14.5547C110.451 14.2031 109.995 13.9427 109.461 13.7734C108.94 13.6042 108.354 13.5195 107.703 13.5195C107.091 13.5195 106.505 13.5651 105.945 13.6562C105.385 13.7344 104.858 13.8451 104.363 13.9883C103.882 14.1185 103.432 14.2747 103.016 14.457C102.612 14.6263 102.267 14.8086 101.98 15.0039L100.789 12.4844C101.271 12.1719 101.798 11.8854 102.371 11.625C102.944 11.3516 103.543 11.1237 104.168 10.9414C104.806 10.7461 105.451 10.5964 106.102 10.4922C106.766 10.375 107.417 10.3164 108.055 10.3164C109.227 10.3164 110.281 10.4596 111.219 10.7461C112.156 11.0195 112.951 11.4492 113.602 12.0352C114.253 12.6211 114.754 13.3698 115.105 14.2812C115.457 15.1797 115.633 16.2604 115.633 17.5234L115.613 27.6406H117.859V31H111.98V29.125ZM107.059 28.5195C107.54 28.5195 108.022 28.4609 108.504 28.3438C108.986 28.2266 109.441 28.0703 109.871 27.875C110.301 27.6667 110.698 27.4323 111.062 27.1719C111.427 26.8984 111.733 26.6185 111.98 26.332L112 21.7617H107.781C107.078 21.7617 106.434 21.8398 105.848 21.9961C105.275 22.1523 104.773 22.3802 104.344 22.6797C103.927 22.9792 103.602 23.3503 103.367 23.793C103.133 24.2357 103.016 24.7435 103.016 25.3164C103.016 25.8503 103.113 26.319 103.309 26.7227C103.504 27.1133 103.777 27.4453 104.129 27.7188C104.493 27.9792 104.923 28.181 105.418 28.3242C105.913 28.4544 106.46 28.5195 107.059 28.5195ZM120.398 10.7656H127.391V14.125H125.496L130.496 28.0703L135.379 14.125H134.148V10.7656H140.555V14.125H138.816L132.195 31.3125H128.602L122 14.125H120.398V10.7656ZM143.289 10.7656H149.891V27.6406H152.938V31H143.328V27.6406H146.219V14.125H143.289V10.7656ZM145.535 3.59766C145.535 3.25911 145.6 2.9401 145.73 2.64062C145.874 2.32812 146.056 2.0612 146.277 1.83984C146.512 1.60547 146.785 1.42318 147.098 1.29297C147.41 1.14974 147.742 1.07812 148.094 1.07812C148.432 1.07812 148.751 1.14974 149.051 1.29297C149.363 1.42318 149.63 1.60547 149.852 1.83984C150.086 2.0612 150.268 2.32812 150.398 2.64062C150.542 2.9401 150.613 3.25911 150.613 3.59766C150.613 3.94922 150.542 4.28125 150.398 4.59375C150.268 4.90625 150.086 5.1862 149.852 5.43359C149.63 5.66797 149.363 5.85677 149.051 6C148.751 6.13021 148.432 6.19531 148.094 6.19531C147.742 6.19531 147.41 6.13021 147.098 6C146.785 5.85677 146.512 5.66797 146.277 5.43359C146.056 5.1862 145.874 4.90625 145.73 4.59375C145.6 4.28125 145.535 3.94922 145.535 3.59766ZM169.617 27.6406H172.469V18.4023C172.469 16.8529 172.072 15.681 171.277 14.8867C170.496 14.0794 169.37 13.6758 167.898 13.6758C167.052 13.6758 166.199 13.8776 165.34 14.2812C164.48 14.6849 163.667 15.1862 162.898 15.7852V27.6406H165.75V31H156.297V27.6406H159.109V14.125H156.297V10.7656H162.742V13.1484H162.781C163.211 12.7708 163.667 12.4128 164.148 12.0742C164.643 11.7357 165.158 11.4427 165.691 11.1953C166.225 10.9479 166.779 10.7526 167.352 10.6094C167.938 10.4661 168.549 10.3945 169.188 10.3945C170.268 10.3945 171.245 10.5443 172.117 10.8438C172.99 11.1432 173.732 11.599 174.344 12.2109C174.956 12.8229 175.424 13.6107 175.75 14.5742C176.089 15.5247 176.258 16.651 176.258 17.9531V27.6406H179.07V31H169.617V27.6406ZM182.82 10.7656H189.422V27.6406H192.469V31H182.859V27.6406H185.75V14.125H182.82V10.7656ZM185.066 3.59766C185.066 3.25911 185.132 2.9401 185.262 2.64062C185.405 2.32812 185.587 2.0612 185.809 1.83984C186.043 1.60547 186.316 1.42318 186.629 1.29297C186.941 1.14974 187.273 1.07812 187.625 1.07812C187.964 1.07812 188.283 1.14974 188.582 1.29297C188.895 1.42318 189.161 1.60547 189.383 1.83984C189.617 2.0612 189.799 2.32812 189.93 2.64062C190.073 2.9401 190.145 3.25911 190.145 3.59766C190.145 3.94922 190.073 4.28125 189.93 4.59375C189.799 4.90625 189.617 5.1862 189.383 5.43359C189.161 5.66797 188.895 5.85677 188.582 6C188.283 6.13021 187.964 6.19531 187.625 6.19531C187.273 6.19531 186.941 6.13021 186.629 6C186.316 5.85677 186.043 5.66797 185.809 5.43359C185.587 5.1862 185.405 4.90625 185.262 4.59375C185.132 4.28125 185.066 3.94922 185.066 3.59766Z" fill="#002EA4"/>
</svg>
