<svg width="261" height="36" viewBox="0 0 261 36" fill="none" xmlns="http://www.w3.org/2000/svg">
<path d="M9.87891 35.3281C5.66016 34.1445 3.55078 31.4199 3.55078 27.1543V23.6738C3.55078 21.3066 2.60156 20.123 0.703125 20.123V16.1328C2.60156 16.1328 3.55078 14.9434 3.55078 12.5645V8.87305C3.58594 6.76367 4.13086 5.05859 5.18555 3.75781C6.25195 2.45703 7.81641 1.51367 9.87891 0.927734L10.9863 4.02148C9.50977 4.58398 8.74219 6.16016 8.68359 8.75V12.5645C8.68359 15.1895 7.59961 17.041 5.43164 18.1191C7.59961 19.1973 8.68359 21.0547 8.68359 23.6914V27.4883C8.74219 30.0781 9.50977 31.6543 10.9863 32.2168L9.87891 35.3281ZM250.717 32.2168C252.193 31.6543 252.961 30.0781 253.02 27.4883V23.6738C253.02 21.0371 254.109 19.1855 256.289 18.1191C254.109 17.0527 253.02 15.2012 253.02 12.5645V8.75C252.961 6.16016 252.193 4.58398 250.717 4.02148L251.824 0.927734C253.922 1.51367 255.498 2.47461 256.553 3.81055C257.607 5.13477 258.141 6.875 258.152 9.03125V12.5645C258.152 14.9434 259.102 16.1328 261 16.1328V20.123C259.102 20.123 258.152 21.3008 258.152 23.6562V27.4004C258.07 31.5254 255.961 34.168 251.824 35.3281L250.717 32.2168Z" fill="#3DB166"/>
<path d="M41.291 6.18359H33.0645V29H29.707V6.18359H21.498V3.40625H41.291V6.18359ZM50.7129 29.3516C48.1348 29.3516 46.0371 28.5078 44.4199 26.8203C42.8027 25.1211 41.9941 22.8535 41.9941 20.0176V19.4199C41.9941 17.5332 42.3516 15.8516 43.0664 14.375C43.793 12.8867 44.8008 11.7266 46.0898 10.8945C47.3906 10.0508 48.7969 9.62891 50.3086 9.62891C52.7812 9.62891 54.7031 10.4434 56.0742 12.0723C57.4453 13.7012 58.1309 16.0332 58.1309 19.0684V20.4219H45.2461C45.293 22.2969 45.8379 23.8145 46.8809 24.9746C47.9355 26.123 49.2715 26.6973 50.8887 26.6973C52.0371 26.6973 53.0098 26.4629 53.8066 25.9941C54.6035 25.5254 55.3008 24.9043 55.8984 24.1309L57.8848 25.6777C56.291 28.127 53.9004 29.3516 50.7129 29.3516ZM50.3086 12.3008C48.9961 12.3008 47.8945 12.7812 47.0039 13.7422C46.1133 14.6914 45.5625 16.0273 45.3516 17.75H54.8789V17.5039C54.7852 15.8516 54.3398 14.5742 53.543 13.6719C52.7461 12.7578 51.668 12.3008 50.3086 12.3008ZM69.5391 26.6973C70.6992 26.6973 71.7129 26.3457 72.5801 25.6426C73.4473 24.9395 73.9277 24.0605 74.0215 23.0059H77.0977C77.0391 24.0957 76.6641 25.1328 75.9727 26.1172C75.2812 27.1016 74.3555 27.8867 73.1953 28.4727C72.0469 29.0586 70.8281 29.3516 69.5391 29.3516C66.9492 29.3516 64.8867 28.4902 63.3516 26.7676C61.8281 25.0332 61.0664 22.666 61.0664 19.666V19.1211C61.0664 17.2695 61.4062 15.623 62.0859 14.1816C62.7656 12.7402 63.7383 11.6211 65.0039 10.8242C66.2812 10.0273 67.7871 9.62891 69.5215 9.62891C71.6543 9.62891 73.4238 10.2676 74.8301 11.5449C76.248 12.8223 77.0039 14.4805 77.0977 16.5195H74.0215C73.9277 15.2891 73.459 14.2812 72.6152 13.4961C71.7832 12.6992 70.752 12.3008 69.5215 12.3008C67.8691 12.3008 66.5859 12.8984 65.6719 14.0938C64.7695 15.2773 64.3184 16.9941 64.3184 19.2441V19.8594C64.3184 22.0508 64.7695 23.7383 65.6719 24.9219C66.5742 26.1055 67.8633 26.6973 69.5391 26.6973ZM84.0059 12.2832C85.4473 10.5137 87.3223 9.62891 89.6309 9.62891C93.6504 9.62891 95.6777 11.8965 95.7129 16.4316V29H92.4609V16.4141C92.4492 15.043 92.1328 14.0293 91.5117 13.373C90.9023 12.7168 89.9473 12.3887 88.6465 12.3887C87.5918 12.3887 86.666 12.6699 85.8691 13.2324C85.0723 13.7949 84.4512 14.5332 84.0059 15.4473V29H80.7539V2H84.0059V12.2832Z" fill="black"/>
<path d="M113.256 22.1973C113.256 21.2949 112.934 20.5918 112.289 20.0879C111.656 19.584 110.537 19.0625 108.932 18.5234C107.326 17.9844 106.014 17.4629 104.994 16.959C101.678 15.3301 100.02 13.0918 100.02 10.2441C100.02 8.82617 100.43 7.57812 101.25 6.5C102.082 5.41016 103.254 4.56641 104.766 3.96875C106.277 3.35937 107.977 3.05469 109.863 3.05469C111.703 3.05469 113.35 3.38281 114.803 4.03906C116.268 4.69531 117.404 5.63281 118.213 6.85156C119.021 8.05859 119.426 9.44141 119.426 11H113.273C113.273 9.95703 112.951 9.14844 112.307 8.57422C111.674 8 110.812 7.71289 109.723 7.71289C108.621 7.71289 107.748 7.95898 107.104 8.45117C106.471 8.93164 106.154 9.54687 106.154 10.2969C106.154 10.9531 106.506 11.5508 107.209 12.0898C107.912 12.6172 109.148 13.168 110.918 13.7422C112.688 14.3047 114.141 14.9141 115.277 15.5703C118.043 17.1641 119.426 19.3613 119.426 22.1621C119.426 24.4004 118.582 26.1582 116.895 27.4355C115.207 28.7129 112.893 29.3516 109.951 29.3516C107.877 29.3516 105.996 28.9824 104.309 28.2441C102.633 27.4941 101.367 26.4746 100.512 25.1855C99.668 23.8848 99.2461 22.3906 99.2461 20.7031H105.434C105.434 22.0742 105.785 23.0879 106.488 23.7441C107.203 24.3887 108.357 24.7109 109.951 24.7109C110.971 24.7109 111.773 24.4941 112.359 24.0605C112.957 23.6152 113.256 22.9941 113.256 22.1973ZM130.359 24.7812C131.191 24.7812 131.836 24.5586 132.293 24.1133C132.75 23.6562 132.973 23.0234 132.961 22.2148H138.516C138.516 24.3008 137.766 26.0117 136.266 27.3477C134.777 28.6836 132.855 29.3516 130.5 29.3516C127.734 29.3516 125.555 28.4844 123.961 26.75C122.367 25.0156 121.57 22.6133 121.57 19.543V19.2969C121.57 17.375 121.922 15.6816 122.625 14.2168C123.34 12.7402 124.365 11.6094 125.701 10.8242C127.037 10.0273 128.619 9.62891 130.447 9.62891C132.92 9.62891 134.883 10.3145 136.336 11.6855C137.789 13.0566 138.516 14.9141 138.516 17.2578H132.961C132.961 16.2734 132.721 15.5176 132.24 14.9902C131.76 14.4629 131.115 14.1992 130.307 14.1992C128.771 14.1992 127.875 15.1777 127.617 17.1348C127.535 17.7559 127.494 18.6113 127.494 19.7012C127.494 21.6113 127.723 22.9355 128.18 23.6738C128.637 24.4121 129.363 24.7812 130.359 24.7812ZM146.812 12.0195C148.078 10.4258 149.695 9.62891 151.664 9.62891C153.762 9.62891 155.344 10.25 156.41 11.4922C157.477 12.7344 158.021 14.5684 158.045 16.9941V29H152.104V17.1348C152.104 16.127 151.898 15.3887 151.488 14.9199C151.078 14.4395 150.381 14.1992 149.396 14.1992C148.178 14.1992 147.316 14.5859 146.812 15.3594V29H140.889V2H146.812V12.0195ZM160.594 19.3145C160.594 17.416 160.963 15.7285 161.701 14.252C162.439 12.7637 163.5 11.6211 164.883 10.8242C166.266 10.0273 167.889 9.62891 169.752 9.62891C172.6 9.62891 174.844 10.5137 176.484 12.2832C178.125 14.041 178.945 16.4375 178.945 19.4727V19.6836C178.945 22.6484 178.119 25.0039 176.467 26.75C174.826 28.4844 172.6 29.3516 169.787 29.3516C167.08 29.3516 164.906 28.543 163.266 26.9258C161.625 25.2969 160.74 23.0938 160.611 20.3164L160.594 19.3145ZM166.518 19.6836C166.518 21.4414 166.793 22.7305 167.344 23.5508C167.895 24.3711 168.709 24.7812 169.787 24.7812C171.896 24.7812 172.975 23.1582 173.021 19.9121V19.3145C173.021 15.9043 171.932 14.1992 169.752 14.1992C167.771 14.1992 166.699 15.6699 166.535 18.6113L166.518 19.6836ZM187.805 29H181.863V2H187.805V29ZM202.184 29C201.973 28.6133 201.785 28.0449 201.621 27.2949C200.531 28.666 199.008 29.3516 197.051 29.3516C195.258 29.3516 193.734 28.8125 192.48 27.7344C191.227 26.6445 190.6 25.2793 190.6 23.6387C190.6 21.5762 191.361 20.0176 192.885 18.9629C194.408 17.9082 196.623 17.3809 199.529 17.3809H201.357V16.3789C201.357 14.6328 200.602 13.7598 199.09 13.7598C197.684 13.7598 196.98 14.4512 196.98 15.834H191.057C191.057 13.9941 191.836 12.5 193.395 11.3516C194.965 10.2031 196.963 9.62891 199.389 9.62891C201.814 9.62891 203.73 10.2207 205.137 11.4043C206.543 12.5879 207.264 14.2109 207.299 16.2734V24.6934C207.322 26.4395 207.592 27.7754 208.107 28.7012V29H202.184ZM198.475 25.1328C199.213 25.1328 199.822 24.9746 200.303 24.6582C200.795 24.3418 201.146 23.9844 201.357 23.5859V20.5449H199.635C197.572 20.5449 196.541 21.4707 196.541 23.3223C196.541 23.8613 196.723 24.3008 197.086 24.6406C197.449 24.9688 197.912 25.1328 198.475 25.1328ZM222.1 15.3418L220.148 15.2012C218.285 15.2012 217.09 15.7871 216.562 16.959V29H210.639V9.98047H216.193L216.387 12.4238C217.383 10.5605 218.771 9.62891 220.553 9.62891C221.186 9.62891 221.736 9.69922 222.205 9.83984L222.1 15.3418ZM234.193 23.6562C234.193 23.1523 233.93 22.748 233.402 22.4434C232.875 22.1387 231.873 21.8223 230.396 21.4941C228.92 21.166 227.701 20.7383 226.74 20.2109C225.779 19.6719 225.047 19.0215 224.543 18.2598C224.039 17.498 223.787 16.625 223.787 15.6406C223.787 13.8945 224.508 12.459 225.949 11.334C227.391 10.1973 229.277 9.62891 231.609 9.62891C234.117 9.62891 236.133 10.1973 237.656 11.334C239.18 12.4707 239.941 13.9648 239.941 15.8164H234C234 14.293 233.197 13.5312 231.592 13.5312C230.971 13.5312 230.449 13.707 230.027 14.0586C229.605 14.3984 229.395 14.8262 229.395 15.3418C229.395 15.8691 229.652 16.2969 230.168 16.625C230.684 16.9531 231.504 17.2227 232.629 17.4336C233.766 17.6445 234.762 17.8965 235.617 18.1895C238.477 19.1738 239.906 20.9375 239.906 23.4805C239.906 25.2148 239.133 26.627 237.586 27.7168C236.051 28.8066 234.059 29.3516 231.609 29.3516C229.98 29.3516 228.527 29.0586 227.25 28.4727C225.973 27.8867 224.977 27.0898 224.262 26.082C223.547 25.0742 223.189 24.0137 223.189 22.9004H228.727C228.75 23.7793 229.043 24.4238 229.605 24.834C230.168 25.2324 230.889 25.4316 231.768 25.4316C232.576 25.4316 233.18 25.2676 233.578 24.9395C233.988 24.6113 234.193 24.1836 234.193 23.6562Z" fill="#1C046F"/>
</svg>
